<?xml version="1.0" standalone="no"?>
<!DOCTYPE svg PUBLIC "-//W3C//DTD SVG 20010904//EN"
 "http://www.w3.org/TR/2001/REC-SVG-20010904/DTD/svg10.dtd">
<svg version="1.0" xmlns="http://www.w3.org/2000/svg"
 width="600.000000pt" height="480.000000pt" viewBox="0 0 600.000000 480.000000"
 preserveAspectRatio="xMidYMid meet">

<g transform="translate(0.000000,480.000000) scale(0.100000,-0.100000)"
fill="#000000" stroke="none">
<path d="M2957 3853 c-4 -3 -7 -84 -7 -180 l0 -173 -138 0 -138 0 -172 -179
-172 -179 0 -540 0 -539 -64 -6 c-51 -5 -87 -17 -166 -58 -98 -49 -101 -52
-98 -82 2 -21 9 -33 21 -35 10 -2 63 19 118 47 135 68 161 68 300 0 98 -49
109 -52 185 -53 77 -1 85 1 175 46 53 27 115 51 140 54 55 8 121 -9 179 -46
25 -16 72 -36 104 -45 87 -25 150 -15 266 43 84 42 102 47 160 47 57 0 74 -5
140 -42 128 -71 215 -77 208 -15 -2 22 -9 28 -41 33 -21 3 -79 27 -130 53 -70
36 -107 49 -154 53 l-63 6 0 536 0 536 -173 182 -172 182 -127 1 -128 0 0 180
0 180 -23 0 c-13 0 -27 -3 -30 -7z m-7 -458 c0 -54 0 -55 -30 -55 -25 0 -30
-4 -30 -25 l0 -26 93 3 c86 3 92 4 95 25 3 18 -2 22 -30 25 -32 3 -33 4 -36
56 l-3 52 104 0 105 0 -52 -163 c-29 -90 -55 -171 -59 -180 -5 -14 -22 -17
-101 -17 l-95 0 -90 174 c-50 95 -91 176 -91 180 0 3 50 6 110 6 l110 0 0 -55z
m-220 -65 c41 -83 47 -100 33 -100 -10 0 -79 -7 -153 -15 -74 -8 -139 -15
-144 -15 -4 0 40 52 99 115 59 63 109 115 111 115 2 0 26 -45 54 -100z m739
-124 c-2 -2 -56 3 -119 10 -63 7 -122 13 -132 14 -14 0 -12 12 15 96 l32 95
104 -106 c57 -58 102 -107 100 -109z m-629 -94 l35 -67 134 0 134 0 21 62 c12
34 23 64 26 67 5 5 293 -20 338 -30 l22 -4 -2 -546 -3 -546 -88 -46 c-76 -39
-97 -46 -150 -46 -55 -1 -73 5 -161 49 -95 48 -103 50 -182 50 -79 0 -86 -2
-179 -50 -85 -44 -103 -50 -158 -50 -49 0 -73 6 -112 28 -28 15 -67 35 -87 44
l-38 16 0 549 c0 430 3 549 13 552 10 4 310 31 377 35 21 1 30 -9 60 -67z"/>
<path d="M3260 2863 c-80 -52 -169 -143 -199 -200 l-18 -35 -32 58 c-62 111
-180 194 -274 194 -45 0 -59 -12 -55 -46 l3 -29 -62 3 -62 4 -31 -49 c-80
-125 -81 -311 -2 -457 34 -64 114 -146 167 -171 56 -27 145 -31 199 -11 60 23
128 98 156 172 19 49 22 77 21 164 -1 93 2 110 24 156 14 28 43 72 65 97 41
47 130 117 147 117 13 0 51 -130 59 -200 14 -122 -39 -255 -143 -358 -35 -36
-66 -62 -69 -59 -3 3 16 71 41 152 26 81 44 153 41 161 -3 9 -15 14 -28 12
-19 -3 -29 -27 -81 -194 -42 -135 -58 -200 -53 -218 l7 -27 40 23 c116 65 228
188 270 295 47 122 35 295 -29 436 l-27 59 -75 -49z m-682 -180 c-6 -21 -8
-76 -6 -123 3 -69 10 -97 36 -151 34 -72 110 -155 181 -201 44 -27 42 -32 -9
-28 -68 6 -163 91 -206 184 -44 95 -48 229 -11 319 20 48 28 48 15 0z"/>
<path d="M2243 1581 c-47 -30 -55 -71 -51 -255 l3 -158 33 -29 c26 -23 41 -29
80 -29 101 0 114 32 110 258 -3 170 -3 172 -29 198 -36 36 -102 43 -146 15z
m98 -81 c11 -39 10 -266 -1 -295 -8 -21 -16 -26 -38 -23 l-27 3 -3 159 c-3
167 2 190 42 184 12 -2 23 -13 27 -28z"/>
<path d="M1802 1353 l3 -238 38 -3 37 -3 0 83 c1 51 6 93 14 108 13 23 16 20
47 -83 l32 -107 39 0 c33 0 38 3 34 18 -3 9 -23 79 -46 155 l-41 138 46 84 46
85 -38 0 c-38 0 -39 0 -85 -92 l-47 -93 0 93 -1 92 -40 0 -40 0 2 -237z"/>
<path d="M2582 1353 l3 -238 38 -3 37 -3 0 105 0 105 48 3 c45 3 47 4 50 36
l3 32 -50 0 -51 0 0 65 0 65 60 0 60 0 0 35 0 35 -100 0 -100 0 2 -237z"/>
<path d="M2930 1349 l0 -240 38 3 37 3 3 103 3 102 44 0 c45 0 45 0 45 35 0
35 0 35 -45 35 l-45 0 0 65 0 65 60 0 60 0 0 35 0 35 -100 0 -100 0 0 -241z"/>
<path d="M3260 1555 c0 -34 1 -35 40 -35 l40 0 0 -205 0 -205 35 0 35 0 0 205
0 205 40 0 c39 0 40 1 40 35 l0 35 -115 0 -115 0 0 -35z"/>
<path d="M3640 1350 l0 -240 100 0 100 0 0 35 0 35 -65 0 -65 0 0 75 0 75 56
0 55 0 -3 33 c-3 31 -4 32 -55 35 l-53 3 0 60 0 59 65 0 65 0 0 35 0 35 -100
0 -100 0 0 -240z"/>
<path d="M4021 1378 c-19 -117 -37 -225 -39 -240 -4 -26 -2 -28 31 -28 35 0
35 1 42 50 l7 50 43 0 42 0 7 -50 c7 -49 7 -50 41 -50 28 0 35 4 35 19 0 11
-16 117 -35 235 -19 119 -35 218 -35 221 0 3 -24 5 -53 5 l-52 0 -34 -212z
m113 -75 c5 -32 4 -33 -30 -33 -19 0 -34 3 -34 8 0 4 7 50 15 102 8 52 15 100
16 105 1 9 16 -75 33 -182z"/>
</g>
</svg>
